<mxfile host="app.diagrams.net" agent="Mozilla/5.0 (Windows NT 10.0; Win64; x64) AppleWebKit/537.36 (KHTML, like Gecko) Chrome/127.0.0.0 Safari/537.36" version="24.7.6">
  <diagram name="Page-1" id="64c3da0e-402f-94eb-ee01-a36477274f13">
    <mxGraphModel dx="2625" dy="2334" grid="1" gridSize="10" guides="1" tooltips="1" connect="1" arrows="1" fold="1" page="1" pageScale="1" pageWidth="1169" pageHeight="826" background="none" math="0" shadow="0">
      <root>
        <mxCell id="0" />
        <mxCell id="1" parent="0" />
        <mxCell id="JrAzROKssGkq0tilcZ8H-234" style="edgeStyle=orthogonalEdgeStyle;rounded=0;orthogonalLoop=1;jettySize=auto;html=1;exitX=1;exitY=0.5;exitDx=0;exitDy=0;" parent="1" source="2" edge="1">
          <mxGeometry relative="1" as="geometry">
            <mxPoint x="1070" y="120" as="targetPoint" />
            <Array as="points">
              <mxPoint x="1060" y="40" />
              <mxPoint x="1060" y="110" />
              <mxPoint x="1071" y="110" />
              <mxPoint x="1071" y="120" />
            </Array>
          </mxGeometry>
        </mxCell>
        <mxCell id="JrAzROKssGkq0tilcZ8H-235" style="edgeStyle=orthogonalEdgeStyle;rounded=0;orthogonalLoop=1;jettySize=auto;html=1;exitX=0.5;exitY=0;exitDx=0;exitDy=0;" parent="1" source="2" edge="1">
          <mxGeometry relative="1" as="geometry">
            <mxPoint x="1170" y="40" as="targetPoint" />
            <Array as="points">
              <mxPoint x="1070" y="90" />
              <mxPoint x="1171" y="90" />
              <mxPoint x="1171" y="40" />
            </Array>
          </mxGeometry>
        </mxCell>
        <mxCell id="2" value="Code Complexity and Quality Analyzer Plugin for Project Management Tool with Predictive Analytics" style="whiteSpace=wrap;rounded=1;shadow=1;fillColor=#008a00;strokeColor=#005700;fontStyle=1;fontSize=24;fontColor=#ffffff;" parent="1" vertex="1">
          <mxGeometry x="800" y="-10" width="580" height="100" as="geometry" />
        </mxCell>
        <mxCell id="3" value="Initiation" style="whiteSpace=wrap;rounded=1;fillColor=#76608a;strokeColor=#432D57;shadow=1;fontStyle=1;fontSize=16;fontColor=#ffffff;" parent="1" vertex="1">
          <mxGeometry x="160" y="169.9999999999998" width="140" height="60" as="geometry" />
        </mxCell>
        <mxCell id="4" value="Planning" style="whiteSpace=wrap;rounded=1;fillColor=#76608a;strokeColor=#432D57;shadow=1;fontStyle=1;fontSize=16;fontColor=#ffffff;" parent="1" vertex="1">
          <mxGeometry x="530" y="169.9999999999998" width="140" height="60" as="geometry" />
        </mxCell>
        <mxCell id="6" value="Design" style="whiteSpace=wrap;rounded=1;fillColor=#76608a;strokeColor=#432D57;shadow=1;fontStyle=1;fontSize=16;fontColor=#ffffff;" parent="1" vertex="1">
          <mxGeometry x="900" y="169.9999999999998" width="140" height="60" as="geometry" />
        </mxCell>
        <mxCell id="7" value="Implementation" style="whiteSpace=wrap;rounded=1;fillColor=#76608a;strokeColor=#432D57;shadow=1;fontStyle=1;fontSize=16;fontColor=#ffffff;" parent="1" vertex="1">
          <mxGeometry x="1270" y="169.9999999999998" width="140" height="60" as="geometry" />
        </mxCell>
        <mxCell id="8" value="Closeout" style="whiteSpace=wrap;rounded=1;fillColor=#76608a;strokeColor=#432D57;shadow=1;fontStyle=1;fontSize=16;fontColor=#ffffff;" parent="1" vertex="1">
          <mxGeometry x="1640" y="179.9999999999998" width="140" height="60" as="geometry" />
        </mxCell>
        <mxCell id="23" value="Â Define project objectives" style="whiteSpace=wrap;rounded=1;fillColor=#d80073;strokeColor=#A50040;shadow=1;fontStyle=0;fontColor=#ffffff;fontSize=15;" parent="1" vertex="1">
          <mxGeometry x="70" y="390" width="200" height="60" as="geometry" />
        </mxCell>
        <mxCell id="24" value="Identify stakeholders" style="whiteSpace=wrap;rounded=1;fillColor=#d80073;strokeColor=#A50040;shadow=1;fontStyle=0;fontColor=#ffffff;fontSize=15;" parent="1" vertex="1">
          <mxGeometry x="70" y="480" width="200" height="60" as="geometry" />
        </mxCell>
        <mxCell id="25" value="Define project scope" style="whiteSpace=wrap;rounded=1;fillColor=#d80073;strokeColor=#A50040;shadow=1;fontStyle=0;fontColor=#ffffff;fontSize=15;" parent="1" vertex="1">
          <mxGeometry x="70" y="560" width="200" height="60" as="geometry" />
        </mxCell>
        <mxCell id="26" value="Feasibility Study" style="whiteSpace=wrap;rounded=1;fillColor=#d80073;strokeColor=#A50040;shadow=1;fontStyle=0;fontColor=#ffffff;fontSize=15;" parent="1" vertex="1">
          <mxGeometry x="70" y="640" width="200" height="60" as="geometry" />
        </mxCell>
        <mxCell id="27" value="Assess technical feasibility" style="whiteSpace=wrap;rounded=1;fillColor=#d80073;strokeColor=#A50040;shadow=1;fontStyle=0;fontColor=#ffffff;fontSize=15;" parent="1" vertex="1">
          <mxGeometry x="70" y="720" width="200" height="60" as="geometry" />
        </mxCell>
        <mxCell id="43" value="Project Plan Development" style="whiteSpace=wrap;rounded=1;fillColor=#d80073;strokeColor=#A50040;shadow=1;fontColor=#ffffff;fontSize=16;" parent="1" vertex="1">
          <mxGeometry x="440" y="300" width="200" height="60" as="geometry" />
        </mxCell>
        <mxCell id="45" value="Define project schedule" style="whiteSpace=wrap;rounded=1;fillColor=#d80073;strokeColor=#A50040;shadow=1;fontColor=#ffffff;fontStyle=0;fontSize=15;" parent="1" vertex="1">
          <mxGeometry x="440" y="400" width="200" height="60" as="geometry" />
        </mxCell>
        <mxCell id="46" value="Define project budget" style="whiteSpace=wrap;rounded=1;fillColor=#d80073;strokeColor=#A50040;shadow=1;fontColor=#ffffff;fontStyle=0;fontSize=15;" parent="1" vertex="1">
          <mxGeometry x="440" y="480" width="200" height="60" as="geometry" />
        </mxCell>
        <mxCell id="47" value="Define project resources" style="whiteSpace=wrap;rounded=1;fillColor=#d80073;strokeColor=#A50040;shadow=1;fontColor=#ffffff;fontStyle=0;fontSize=15;" parent="1" vertex="1">
          <mxGeometry x="440" y="560" width="200" height="60" as="geometry" />
        </mxCell>
        <mxCell id="48" value="Define project risk management plan" style="whiteSpace=wrap;rounded=1;fillColor=#d80073;strokeColor=#A50040;shadow=1;fontColor=#ffffff;fontStyle=0;fontSize=15;" parent="1" vertex="1">
          <mxGeometry x="440" y="640" width="200" height="60" as="geometry" />
        </mxCell>
        <mxCell id="49" value="Requirements Gathering" style="whiteSpace=wrap;rounded=1;fillColor=#d80073;strokeColor=#A50040;shadow=1;fontColor=#ffffff;fontStyle=0;fontSize=15;" parent="1" vertex="1">
          <mxGeometry x="440" y="720" width="200" height="60" as="geometry" />
        </mxCell>
        <mxCell id="103" value="" style="edgeStyle=elbowEdgeStyle;elbow=vertical;rounded=0;fontColor=#000000;endArrow=none;endFill=0;strokeWidth=8;strokeColor=#23445D;fontSize=16;" parent="1" source="3" edge="1">
          <mxGeometry width="100" height="100" relative="1" as="geometry">
            <mxPoint x="20" y="290" as="sourcePoint" />
            <mxPoint x="130" y="300" as="targetPoint" />
            <Array as="points">
              <mxPoint x="230" y="260" />
            </Array>
          </mxGeometry>
        </mxCell>
        <mxCell id="105" value="" style="edgeStyle=elbowEdgeStyle;elbow=horizontal;rounded=0;fontColor=#000000;endArrow=none;endFill=0;strokeWidth=8;strokeColor=#A50040;fillColor=#d80073;fontSize=16;" parent="1" target="23" edge="1">
          <mxGeometry width="100" height="100" relative="1" as="geometry">
            <mxPoint x="70" y="330" as="sourcePoint" />
            <mxPoint x="110" y="380" as="targetPoint" />
            <Array as="points">
              <mxPoint x="50" y="380" />
            </Array>
          </mxGeometry>
        </mxCell>
        <mxCell id="106" value="" style="edgeStyle=elbowEdgeStyle;elbow=horizontal;rounded=0;fontColor=#000000;endArrow=none;endFill=0;strokeWidth=8;strokeColor=#A50040;fillColor=#d80073;fontSize=16;" parent="1" target="24" edge="1">
          <mxGeometry width="100" height="100" relative="1" as="geometry">
            <mxPoint x="70" y="330" as="sourcePoint" />
            <mxPoint x="80" y="440" as="targetPoint" />
            <Array as="points">
              <mxPoint x="50" y="400" />
            </Array>
          </mxGeometry>
        </mxCell>
        <mxCell id="107" value="" style="edgeStyle=elbowEdgeStyle;elbow=horizontal;rounded=0;fontColor=#000000;endArrow=none;endFill=0;strokeWidth=8;strokeColor=#A50040;fillColor=#d80073;fontSize=16;" parent="1" target="27" edge="1">
          <mxGeometry width="100" height="100" relative="1" as="geometry">
            <mxPoint x="70" y="330" as="sourcePoint" />
            <mxPoint x="80" y="440" as="targetPoint" />
            <Array as="points">
              <mxPoint x="50" y="540" />
            </Array>
          </mxGeometry>
        </mxCell>
        <mxCell id="109" value="" style="edgeStyle=elbowEdgeStyle;elbow=horizontal;rounded=0;fontColor=#000000;endArrow=none;endFill=0;strokeWidth=8;strokeColor=#A50040;fillColor=#d80073;fontSize=16;" parent="1" target="26" edge="1">
          <mxGeometry width="100" height="100" relative="1" as="geometry">
            <mxPoint x="70" y="330" as="sourcePoint" />
            <mxPoint x="100" y="460" as="targetPoint" />
            <Array as="points">
              <mxPoint x="50" y="410" />
            </Array>
          </mxGeometry>
        </mxCell>
        <mxCell id="110" value="" style="edgeStyle=elbowEdgeStyle;elbow=horizontal;rounded=0;fontColor=#000000;endArrow=none;endFill=0;strokeWidth=8;strokeColor=#A50040;fillColor=#d80073;fontSize=16;" parent="1" target="25" edge="1">
          <mxGeometry width="100" height="100" relative="1" as="geometry">
            <mxPoint x="70" y="330" as="sourcePoint" />
            <mxPoint x="110" y="470" as="targetPoint" />
            <Array as="points">
              <mxPoint x="50" y="430" />
            </Array>
          </mxGeometry>
        </mxCell>
        <mxCell id="116" value="" style="edgeStyle=elbowEdgeStyle;elbow=vertical;rounded=0;fontColor=#000000;endArrow=none;endFill=0;strokeWidth=8;strokeColor=#23445D;fontSize=16;" parent="1" source="4" target="43" edge="1">
          <mxGeometry width="100" height="100" relative="1" as="geometry">
            <mxPoint x="240" y="239.99999999999977" as="sourcePoint" />
            <mxPoint x="140" y="310" as="targetPoint" />
          </mxGeometry>
        </mxCell>
        <mxCell id="118" value="" style="edgeStyle=elbowEdgeStyle;elbow=horizontal;rounded=0;fontColor=#000000;endArrow=none;endFill=0;strokeWidth=8;strokeColor=#A50040;fillColor=#d80073;fontSize=15;" parent="1" source="43" target="45" edge="1">
          <mxGeometry width="100" height="100" relative="1" as="geometry">
            <mxPoint x="420" y="330.00000000000045" as="sourcePoint" />
            <mxPoint x="429.99999999999955" y="430" as="targetPoint" />
            <Array as="points">
              <mxPoint x="420" y="380" />
            </Array>
          </mxGeometry>
        </mxCell>
        <mxCell id="119" value="" style="edgeStyle=elbowEdgeStyle;elbow=horizontal;rounded=0;fontColor=#000000;endArrow=none;endFill=0;strokeWidth=8;strokeColor=#A50040;fillColor=#d80073;fontSize=15;" parent="1" source="43" target="46" edge="1">
          <mxGeometry width="100" height="100" relative="1" as="geometry">
            <mxPoint x="430" y="330" as="sourcePoint" />
            <mxPoint x="429.9999999999998" y="510" as="targetPoint" />
            <Array as="points">
              <mxPoint x="420" y="420" />
            </Array>
          </mxGeometry>
        </mxCell>
        <mxCell id="120" value="" style="edgeStyle=elbowEdgeStyle;elbow=horizontal;rounded=0;fontColor=#000000;endArrow=none;endFill=0;strokeWidth=8;strokeColor=#A50040;fillColor=#d80073;fontSize=15;" parent="1" source="43" target="49" edge="1">
          <mxGeometry width="100" height="100" relative="1" as="geometry">
            <mxPoint x="430" y="330" as="sourcePoint" />
            <mxPoint x="430" y="750" as="targetPoint" />
            <Array as="points">
              <mxPoint x="420" y="550" />
            </Array>
          </mxGeometry>
        </mxCell>
        <mxCell id="121" value="" style="edgeStyle=elbowEdgeStyle;elbow=horizontal;rounded=0;fontColor=#000000;endArrow=none;endFill=0;strokeWidth=8;strokeColor=#A50040;fillColor=#d80073;fontSize=15;" parent="1" source="43" target="48" edge="1">
          <mxGeometry width="100" height="100" relative="1" as="geometry">
            <mxPoint x="430" y="330" as="sourcePoint" />
            <mxPoint x="430" y="670" as="targetPoint" />
            <Array as="points">
              <mxPoint x="420" y="500" />
            </Array>
          </mxGeometry>
        </mxCell>
        <mxCell id="122" value="" style="edgeStyle=elbowEdgeStyle;elbow=horizontal;rounded=0;fontColor=#000000;endArrow=none;endFill=0;strokeWidth=8;strokeColor=#A50040;fillColor=#d80073;fontSize=15;" parent="1" source="43" target="47" edge="1">
          <mxGeometry width="100" height="100" relative="1" as="geometry">
            <mxPoint x="430" y="330" as="sourcePoint" />
            <mxPoint x="429.9999999999998" y="590" as="targetPoint" />
            <Array as="points">
              <mxPoint x="420" y="470" />
            </Array>
          </mxGeometry>
        </mxCell>
        <mxCell id="133" value="System Design" style="whiteSpace=wrap;rounded=1;fillColor=#d80073;strokeColor=#A50040;shadow=1;fontColor=#ffffff;fontSize=16;" parent="1" vertex="1">
          <mxGeometry x="810" y="300" width="210" height="60" as="geometry" />
        </mxCell>
        <mxCell id="135" value="Design architecture" style="whiteSpace=wrap;rounded=1;fillColor=#d80073;strokeColor=#A50040;shadow=1;fontColor=#ffffff;fontStyle=0;fontSize=15;" parent="1" vertex="1">
          <mxGeometry x="810" y="400" width="210" height="60" as="geometry" />
        </mxCell>
        <mxCell id="136" value="Define data flow diagrams" style="whiteSpace=wrap;rounded=1;fillColor=#d80073;strokeColor=#A50040;shadow=1;fontColor=#ffffff;fontStyle=0;fontSize=15;" parent="1" vertex="1">
          <mxGeometry x="810" y="480" width="210" height="60" as="geometry" />
        </mxCell>
        <mxCell id="137" value="Design database schema" style="whiteSpace=wrap;rounded=1;fillColor=#d80073;strokeColor=#A50040;shadow=1;fontColor=#ffffff;fontStyle=0;fontSize=15;" parent="1" vertex="1">
          <mxGeometry x="810" y="560" width="210" height="60" as="geometry" />
        </mxCell>
        <mxCell id="138" value="Algorithm and Technique Selection" style="whiteSpace=wrap;rounded=1;fillColor=#d80073;strokeColor=#A50040;shadow=1;fontColor=#ffffff;fontStyle=0;fontSize=15;" parent="1" vertex="1">
          <mxGeometry x="810" y="640" width="210" height="60" as="geometry" />
        </mxCell>
        <mxCell id="139" value="Select predictive analytics algorithms" style="whiteSpace=wrap;rounded=1;fillColor=#d80073;strokeColor=#A50040;shadow=1;fontColor=#ffffff;fontStyle=0;fontSize=15;" parent="1" vertex="1">
          <mxGeometry x="810" y="720" width="210" height="60" as="geometry" />
        </mxCell>
        <mxCell id="145" value="" style="edgeStyle=elbowEdgeStyle;elbow=horizontal;rounded=0;fontColor=#000000;endArrow=none;endFill=0;strokeWidth=8;strokeColor=#A50040;fillColor=#d80073;fontSize=15;" parent="1" source="133" target="135" edge="1">
          <mxGeometry width="100" height="100" relative="1" as="geometry">
            <mxPoint x="790" y="330.00000000000045" as="sourcePoint" />
            <mxPoint x="799.9999999999995" y="430" as="targetPoint" />
            <Array as="points">
              <mxPoint x="790" y="380" />
            </Array>
          </mxGeometry>
        </mxCell>
        <mxCell id="146" value="" style="edgeStyle=elbowEdgeStyle;elbow=horizontal;rounded=0;fontColor=#000000;endArrow=none;endFill=0;strokeWidth=8;strokeColor=#A50040;fillColor=#d80073;fontSize=15;" parent="1" source="133" target="136" edge="1">
          <mxGeometry width="100" height="100" relative="1" as="geometry">
            <mxPoint x="800" y="330" as="sourcePoint" />
            <mxPoint x="799.9999999999998" y="510" as="targetPoint" />
            <Array as="points">
              <mxPoint x="790" y="420" />
            </Array>
          </mxGeometry>
        </mxCell>
        <mxCell id="147" value="" style="edgeStyle=elbowEdgeStyle;elbow=horizontal;rounded=0;fontColor=#000000;endArrow=none;endFill=0;strokeWidth=8;strokeColor=#A50040;fillColor=#d80073;fontSize=15;" parent="1" source="133" target="139" edge="1">
          <mxGeometry width="100" height="100" relative="1" as="geometry">
            <mxPoint x="800" y="330" as="sourcePoint" />
            <mxPoint x="800" y="750" as="targetPoint" />
            <Array as="points">
              <mxPoint x="790" y="550" />
            </Array>
          </mxGeometry>
        </mxCell>
        <mxCell id="148" value="" style="edgeStyle=elbowEdgeStyle;elbow=horizontal;rounded=0;fontColor=#000000;endArrow=none;endFill=0;strokeWidth=8;strokeColor=#A50040;fillColor=#d80073;fontSize=15;" parent="1" source="133" target="138" edge="1">
          <mxGeometry width="100" height="100" relative="1" as="geometry">
            <mxPoint x="800" y="330" as="sourcePoint" />
            <mxPoint x="800" y="670" as="targetPoint" />
            <Array as="points">
              <mxPoint x="790" y="500" />
            </Array>
          </mxGeometry>
        </mxCell>
        <mxCell id="149" value="" style="edgeStyle=elbowEdgeStyle;elbow=horizontal;rounded=0;fontColor=#000000;endArrow=none;endFill=0;strokeWidth=8;strokeColor=#A50040;fillColor=#d80073;fontSize=15;" parent="1" source="133" target="137" edge="1">
          <mxGeometry width="100" height="100" relative="1" as="geometry">
            <mxPoint x="800" y="330" as="sourcePoint" />
            <mxPoint x="799.9999999999998" y="590" as="targetPoint" />
            <Array as="points">
              <mxPoint x="790" y="470" />
            </Array>
          </mxGeometry>
        </mxCell>
        <mxCell id="155" value="Â Development" style="whiteSpace=wrap;rounded=1;fillColor=#d80073;strokeColor=#A50040;shadow=1;fontColor=#ffffff;fontSize=16;" parent="1" vertex="1">
          <mxGeometry x="1180" y="300" width="190" height="60" as="geometry" />
        </mxCell>
        <mxCell id="157" value="&#xa;Set up development environment&#xa;&#xa;" style="whiteSpace=wrap;rounded=1;fillColor=#d80073;strokeColor=#A50040;shadow=1;fontColor=#ffffff;fontStyle=0;fontSize=15;" parent="1" vertex="1">
          <mxGeometry x="1180" y="400" width="190" height="60" as="geometry" />
        </mxCell>
        <mxCell id="158" value="Â Develop core functionality" style="whiteSpace=wrap;rounded=1;fillColor=#d80073;strokeColor=#A50040;shadow=1;fontColor=#ffffff;fontStyle=0;fontSize=15;" parent="1" vertex="1">
          <mxGeometry x="1180" y="480" width="190" height="60" as="geometry" />
        </mxCell>
        <mxCell id="159" value="Implement predictive analytics" style="whiteSpace=wrap;rounded=1;fillColor=#d80073;strokeColor=#A50040;shadow=1;fontColor=#ffffff;fontStyle=0;fontSize=15;" parent="1" vertex="1">
          <mxGeometry x="1180" y="560" width="190" height="60" as="geometry" />
        </mxCell>
        <mxCell id="160" value="Implement integration with code repositories" style="whiteSpace=wrap;rounded=1;fillColor=#d80073;strokeColor=#A50040;shadow=1;fontColor=#ffffff;fontStyle=0;fontSize=15;" parent="1" vertex="1">
          <mxGeometry x="1180" y="640" width="190" height="60" as="geometry" />
        </mxCell>
        <mxCell id="161" value="Â Deploy plugin to production environment" style="whiteSpace=wrap;rounded=1;fillColor=#d80073;strokeColor=#A50040;shadow=1;fontColor=#ffffff;fontStyle=0;fontSize=15;" parent="1" vertex="1">
          <mxGeometry x="1180" y="720" width="190" height="60" as="geometry" />
        </mxCell>
        <mxCell id="167" value="" style="edgeStyle=elbowEdgeStyle;elbow=horizontal;rounded=0;fontColor=#000000;endArrow=none;endFill=0;strokeWidth=8;strokeColor=#A50040;fillColor=#d80073;fontSize=15;" parent="1" source="155" target="157" edge="1">
          <mxGeometry width="100" height="100" relative="1" as="geometry">
            <mxPoint x="1160" y="330.00000000000057" as="sourcePoint" />
            <mxPoint x="1169.9999999999995" y="430.0000000000001" as="targetPoint" />
            <Array as="points">
              <mxPoint x="1160" y="380.0000000000001" />
            </Array>
          </mxGeometry>
        </mxCell>
        <mxCell id="168" value="" style="edgeStyle=elbowEdgeStyle;elbow=horizontal;rounded=0;fontColor=#000000;endArrow=none;endFill=0;strokeWidth=8;strokeColor=#A50040;fillColor=#d80073;fontSize=15;" parent="1" source="155" target="158" edge="1">
          <mxGeometry width="100" height="100" relative="1" as="geometry">
            <mxPoint x="1170" y="330.0000000000001" as="sourcePoint" />
            <mxPoint x="1169.9999999999998" y="510.0000000000001" as="targetPoint" />
            <Array as="points">
              <mxPoint x="1160" y="420.0000000000001" />
            </Array>
          </mxGeometry>
        </mxCell>
        <mxCell id="169" value="" style="edgeStyle=elbowEdgeStyle;elbow=horizontal;rounded=0;fontColor=#000000;endArrow=none;endFill=0;strokeWidth=8;strokeColor=#A50040;fillColor=#d80073;fontSize=15;" parent="1" source="155" target="161" edge="1">
          <mxGeometry width="100" height="100" relative="1" as="geometry">
            <mxPoint x="1170" y="330.0000000000001" as="sourcePoint" />
            <mxPoint x="1170" y="750.0000000000001" as="targetPoint" />
            <Array as="points">
              <mxPoint x="1160" y="550.0000000000001" />
            </Array>
          </mxGeometry>
        </mxCell>
        <mxCell id="170" value="" style="edgeStyle=elbowEdgeStyle;elbow=horizontal;rounded=0;fontColor=#000000;endArrow=none;endFill=0;strokeWidth=8;strokeColor=#A50040;fillColor=#d80073;fontSize=15;" parent="1" source="155" target="160" edge="1">
          <mxGeometry width="100" height="100" relative="1" as="geometry">
            <mxPoint x="1170" y="330.0000000000001" as="sourcePoint" />
            <mxPoint x="1170" y="670.0000000000001" as="targetPoint" />
            <Array as="points">
              <mxPoint x="1160" y="500.0000000000001" />
            </Array>
          </mxGeometry>
        </mxCell>
        <mxCell id="171" value="" style="edgeStyle=elbowEdgeStyle;elbow=horizontal;rounded=0;fontColor=#000000;endArrow=none;endFill=0;strokeWidth=8;strokeColor=#A50040;fillColor=#d80073;fontSize=15;" parent="1" source="155" target="159" edge="1">
          <mxGeometry width="100" height="100" relative="1" as="geometry">
            <mxPoint x="1170" y="330.0000000000001" as="sourcePoint" />
            <mxPoint x="1169.9999999999998" y="590.0000000000001" as="targetPoint" />
            <Array as="points">
              <mxPoint x="1160" y="470.0000000000001" />
            </Array>
          </mxGeometry>
        </mxCell>
        <mxCell id="172" value="" style="edgeStyle=elbowEdgeStyle;elbow=horizontal;rounded=0;fontColor=#000000;endArrow=none;endFill=0;strokeWidth=8;strokeColor=#23445D;" parent="1" target="162" edge="1">
          <mxGeometry width="100" height="100" relative="1" as="geometry">
            <mxPoint x="1380" y="330.0000000000002" as="sourcePoint" />
            <mxPoint x="1359.9999999999995" y="430.0000000000001" as="targetPoint" />
            <Array as="points">
              <mxPoint x="1360" y="380.0000000000001" />
            </Array>
          </mxGeometry>
        </mxCell>
        <mxCell id="173" value="" style="edgeStyle=elbowEdgeStyle;elbow=horizontal;rounded=0;fontColor=#000000;endArrow=none;endFill=0;strokeWidth=8;strokeColor=#23445D;" parent="1" target="163" edge="1">
          <mxGeometry width="100" height="100" relative="1" as="geometry">
            <mxPoint x="1380" y="330.0000000000002" as="sourcePoint" />
            <mxPoint x="1359.9999999999998" y="510.0000000000001" as="targetPoint" />
            <Array as="points">
              <mxPoint x="1360" y="420.0000000000001" />
            </Array>
          </mxGeometry>
        </mxCell>
        <mxCell id="174" value="" style="edgeStyle=elbowEdgeStyle;elbow=horizontal;rounded=0;fontColor=#000000;endArrow=none;endFill=0;strokeWidth=8;strokeColor=#23445D;" parent="1" target="166" edge="1">
          <mxGeometry width="100" height="100" relative="1" as="geometry">
            <mxPoint x="1380" y="330.0000000000002" as="sourcePoint" />
            <mxPoint x="1360" y="750.0000000000001" as="targetPoint" />
            <Array as="points">
              <mxPoint x="1360" y="540.0000000000001" />
            </Array>
          </mxGeometry>
        </mxCell>
        <mxCell id="175" value="" style="edgeStyle=elbowEdgeStyle;elbow=horizontal;rounded=0;fontColor=#000000;endArrow=none;endFill=0;strokeWidth=8;strokeColor=#23445D;" parent="1" target="165" edge="1">
          <mxGeometry width="100" height="100" relative="1" as="geometry">
            <mxPoint x="1380" y="330.0000000000002" as="sourcePoint" />
            <mxPoint x="1360" y="670.0000000000001" as="targetPoint" />
            <Array as="points">
              <mxPoint x="1360" y="500.0000000000001" />
            </Array>
          </mxGeometry>
        </mxCell>
        <mxCell id="176" value="" style="edgeStyle=elbowEdgeStyle;elbow=horizontal;rounded=0;fontColor=#000000;endArrow=none;endFill=0;strokeWidth=8;strokeColor=#23445D;" parent="1" target="164" edge="1">
          <mxGeometry width="100" height="100" relative="1" as="geometry">
            <mxPoint x="1380" y="330.0000000000002" as="sourcePoint" />
            <mxPoint x="1359.9999999999998" y="590.0000000000001" as="targetPoint" />
            <Array as="points">
              <mxPoint x="1360" y="470.0000000000001" />
            </Array>
          </mxGeometry>
        </mxCell>
        <mxCell id="177" value="Project Review" style="whiteSpace=wrap;rounded=1;fillColor=#d80073;strokeColor=#A50040;shadow=1;fontColor=#ffffff;fontSize=16;" parent="1" vertex="1">
          <mxGeometry x="1550" y="300" width="220" height="60" as="geometry" />
        </mxCell>
        <mxCell id="179" value="&#xa;Conduct project review meeting&#xa;&#xa;" style="whiteSpace=wrap;rounded=1;fillColor=#d80073;strokeColor=#A50040;shadow=1;fontColor=#ffffff;fontStyle=0;fontSize=15;" parent="1" vertex="1">
          <mxGeometry x="1550" y="400" width="220" height="60" as="geometry" />
        </mxCell>
        <mxCell id="180" value="Document lessons learned" style="whiteSpace=wrap;rounded=1;fillColor=#d80073;strokeColor=#A50040;shadow=1;fontColor=#ffffff;fontStyle=0;fontSize=15;" parent="1" vertex="1">
          <mxGeometry x="1550" y="480" width="220" height="60" as="geometry" />
        </mxCell>
        <mxCell id="181" value="Â Archive project documents" style="whiteSpace=wrap;rounded=1;fillColor=#d80073;strokeColor=#A50040;shadow=1;fontColor=#ffffff;fontStyle=0;fontSize=15;" parent="1" vertex="1">
          <mxGeometry x="1550" y="560" width="220" height="60" as="geometry" />
        </mxCell>
        <mxCell id="182" value="Client Handover" style="whiteSpace=wrap;rounded=1;fillColor=#d80073;strokeColor=#A50040;shadow=1;fontColor=#ffffff;fontStyle=0;fontSize=15;" parent="1" vertex="1">
          <mxGeometry x="1550" y="640" width="220" height="60" as="geometry" />
        </mxCell>
        <mxCell id="183" value="Monitor and evaluate plugin performance" style="whiteSpace=wrap;rounded=1;fillColor=#d80073;strokeColor=#A50040;shadow=1;fontColor=#ffffff;fontStyle=0;fontSize=15;" parent="1" vertex="1">
          <mxGeometry x="1550" y="730" width="220" height="60" as="geometry" />
        </mxCell>
        <mxCell id="189" value="" style="edgeStyle=elbowEdgeStyle;elbow=horizontal;rounded=0;fontColor=#000000;endArrow=none;endFill=0;strokeWidth=8;strokeColor=#A50040;fillColor=#d80073;fontSize=15;" parent="1" source="177" target="179" edge="1">
          <mxGeometry width="100" height="100" relative="1" as="geometry">
            <mxPoint x="1530" y="330.0000000000002" as="sourcePoint" />
            <mxPoint x="1539.9999999999995" y="429.9999999999998" as="targetPoint" />
            <Array as="points">
              <mxPoint x="1530" y="379.9999999999998" />
            </Array>
          </mxGeometry>
        </mxCell>
        <mxCell id="190" value="" style="edgeStyle=elbowEdgeStyle;elbow=horizontal;rounded=0;fontColor=#000000;endArrow=none;endFill=0;strokeWidth=8;strokeColor=#A50040;fillColor=#d80073;fontSize=15;" parent="1" source="177" target="180" edge="1">
          <mxGeometry width="100" height="100" relative="1" as="geometry">
            <mxPoint x="1540" y="329.9999999999998" as="sourcePoint" />
            <mxPoint x="1539.9999999999998" y="509.9999999999998" as="targetPoint" />
            <Array as="points">
              <mxPoint x="1530" y="419.9999999999998" />
            </Array>
          </mxGeometry>
        </mxCell>
        <mxCell id="191" value="" style="edgeStyle=elbowEdgeStyle;elbow=horizontal;rounded=0;fontColor=#000000;endArrow=none;endFill=0;strokeWidth=8;strokeColor=#A50040;fillColor=#d80073;fontSize=15;" parent="1" source="177" target="183" edge="1">
          <mxGeometry width="100" height="100" relative="1" as="geometry">
            <mxPoint x="1540" y="329.9999999999998" as="sourcePoint" />
            <mxPoint x="1540" y="749.9999999999998" as="targetPoint" />
            <Array as="points">
              <mxPoint x="1530" y="549.9999999999998" />
            </Array>
          </mxGeometry>
        </mxCell>
        <mxCell id="192" value="" style="edgeStyle=elbowEdgeStyle;elbow=horizontal;rounded=0;fontColor=#000000;endArrow=none;endFill=0;strokeWidth=8;strokeColor=#A50040;fillColor=#d80073;fontSize=15;" parent="1" source="177" target="182" edge="1">
          <mxGeometry width="100" height="100" relative="1" as="geometry">
            <mxPoint x="1540" y="329.9999999999998" as="sourcePoint" />
            <mxPoint x="1540" y="669.9999999999998" as="targetPoint" />
            <Array as="points">
              <mxPoint x="1530" y="499.9999999999998" />
            </Array>
          </mxGeometry>
        </mxCell>
        <mxCell id="193" value="" style="edgeStyle=elbowEdgeStyle;elbow=horizontal;rounded=0;fontColor=#000000;endArrow=none;endFill=0;strokeWidth=8;strokeColor=#A50040;fillColor=#d80073;fontSize=15;" parent="1" source="177" target="181" edge="1">
          <mxGeometry width="100" height="100" relative="1" as="geometry">
            <mxPoint x="1540" y="329.9999999999998" as="sourcePoint" />
            <mxPoint x="1539.9999999999998" y="589.9999999999998" as="targetPoint" />
            <Array as="points">
              <mxPoint x="1530" y="469.9999999999998" />
            </Array>
          </mxGeometry>
        </mxCell>
        <mxCell id="221" value="" style="edgeStyle=elbowEdgeStyle;elbow=vertical;rounded=0;fontColor=#000000;endArrow=none;endFill=0;strokeWidth=8;strokeColor=#23445D;fontSize=16;" parent="1" source="6" target="133" edge="1">
          <mxGeometry width="100" height="100" relative="1" as="geometry">
            <mxPoint x="780" y="270" as="sourcePoint" />
            <mxPoint x="880" y="170" as="targetPoint" />
          </mxGeometry>
        </mxCell>
        <mxCell id="223" value="" style="edgeStyle=elbowEdgeStyle;elbow=vertical;rounded=0;fontColor=#000000;endArrow=none;endFill=0;strokeWidth=8;strokeColor=#23445D;fontSize=16;" parent="1" source="7" target="155" edge="1">
          <mxGeometry width="100" height="100" relative="1" as="geometry">
            <mxPoint x="1340" y="300" as="sourcePoint" />
            <mxPoint x="1240" y="190" as="targetPoint" />
          </mxGeometry>
        </mxCell>
        <mxCell id="225" value="" style="edgeStyle=elbowEdgeStyle;elbow=vertical;rounded=0;fontColor=#000000;endArrow=none;endFill=0;strokeWidth=8;strokeColor=#23445D;fontSize=16;" parent="1" source="8" target="177" edge="1">
          <mxGeometry width="100" height="100" relative="1" as="geometry">
            <mxPoint x="1550" y="290" as="sourcePoint" />
            <mxPoint x="1650" y="190" as="targetPoint" />
          </mxGeometry>
        </mxCell>
        <mxCell id="229" value="" style="edgeStyle=elbowEdgeStyle;elbow=vertical;rounded=0;fontColor=#000000;endArrow=none;endFill=0;strokeWidth=8;strokeColor=#23445D;" parent="1" source="2" target="3" edge="1">
          <mxGeometry width="100" height="100" relative="1" as="geometry">
            <mxPoint x="540" y="140" as="sourcePoint" />
            <mxPoint x="640" y="40" as="targetPoint" />
          </mxGeometry>
        </mxCell>
        <mxCell id="230" value="" style="edgeStyle=elbowEdgeStyle;elbow=vertical;rounded=0;fontColor=#000000;endArrow=none;endFill=0;strokeWidth=8;strokeColor=#23445D;" parent="1" source="2" target="4" edge="1">
          <mxGeometry width="100" height="100" relative="1" as="geometry">
            <mxPoint x="550" y="150" as="sourcePoint" />
            <mxPoint x="650" y="50" as="targetPoint" />
          </mxGeometry>
        </mxCell>
        <mxCell id="231" value="" style="edgeStyle=elbowEdgeStyle;elbow=vertical;rounded=0;fontColor=#000000;endArrow=none;endFill=0;strokeWidth=8;strokeColor=#23445D;" parent="1" source="2" target="6" edge="1">
          <mxGeometry width="100" height="100" relative="1" as="geometry">
            <mxPoint x="560" y="160" as="sourcePoint" />
            <mxPoint x="660" y="60" as="targetPoint" />
          </mxGeometry>
        </mxCell>
        <mxCell id="232" value="" style="edgeStyle=elbowEdgeStyle;elbow=vertical;rounded=0;fontColor=#000000;endArrow=none;endFill=0;strokeWidth=8;strokeColor=#23445D;" parent="1" source="2" target="7" edge="1">
          <mxGeometry width="100" height="100" relative="1" as="geometry">
            <mxPoint x="570" y="170" as="sourcePoint" />
            <mxPoint x="670" y="70" as="targetPoint" />
          </mxGeometry>
        </mxCell>
        <mxCell id="233" value="" style="edgeStyle=elbowEdgeStyle;elbow=vertical;rounded=0;fontColor=#000000;endArrow=none;endFill=0;strokeWidth=8;strokeColor=#23445D;" parent="1" source="2" target="8" edge="1">
          <mxGeometry width="100" height="100" relative="1" as="geometry">
            <mxPoint x="580" y="180" as="sourcePoint" />
            <mxPoint x="680" y="80" as="targetPoint" />
          </mxGeometry>
        </mxCell>
        <mxCell id="234" value="" style="edgeStyle=elbowEdgeStyle;elbow=vertical;rounded=0;fontColor=#000000;endArrow=none;endFill=0;strokeWidth=8;strokeColor=#23445D;" parent="1" source="2" edge="1">
          <mxGeometry width="100" height="100" relative="1" as="geometry">
            <mxPoint x="590" y="190" as="sourcePoint" />
            <mxPoint x="1710" y="150" as="targetPoint" />
            <Array as="points">
              <mxPoint x="1470" y="130" />
            </Array>
          </mxGeometry>
        </mxCell>
        <mxCell id="PPBZpItH6KybhD6MqibV-235" value="1" style="triangle;whiteSpace=wrap;html=1;fillColor=#fa6800;fontColor=#000000;strokeColor=#C73500;fontSize=16;" vertex="1" parent="1">
          <mxGeometry x="130" y="160" width="60" height="80" as="geometry" />
        </mxCell>
        <mxCell id="PPBZpItH6KybhD6MqibV-236" value="2" style="triangle;whiteSpace=wrap;html=1;fillColor=#fa6800;fontColor=#000000;strokeColor=#C73500;fontSize=16;" vertex="1" parent="1">
          <mxGeometry x="500" y="160" width="60" height="80" as="geometry" />
        </mxCell>
        <mxCell id="PPBZpItH6KybhD6MqibV-237" value="3" style="triangle;whiteSpace=wrap;html=1;fillColor=#fa6800;fontColor=#000000;strokeColor=#C73500;fontSize=16;" vertex="1" parent="1">
          <mxGeometry x="850" y="160" width="60" height="80" as="geometry" />
        </mxCell>
        <mxCell id="PPBZpItH6KybhD6MqibV-239" value="4" style="triangle;whiteSpace=wrap;html=1;fillColor=#fa6800;fontColor=#000000;strokeColor=#C73500;fontSize=16;" vertex="1" parent="1">
          <mxGeometry x="1210" y="160" width="60" height="80" as="geometry" />
        </mxCell>
        <mxCell id="PPBZpItH6KybhD6MqibV-243" value="5" style="triangle;whiteSpace=wrap;html=1;fillColor=#fa6800;fontColor=#000000;strokeColor=#C73500;fontSize=16;" vertex="1" parent="1">
          <mxGeometry x="1600" y="160" width="60" height="80" as="geometry" />
        </mxCell>
        <mxCell id="PPBZpItH6KybhD6MqibV-249" value="Project Charter Development" style="whiteSpace=wrap;rounded=1;fillColor=#d80073;strokeColor=#A50040;shadow=1;fontStyle=0;fontColor=#ffffff;fontSize=15;" vertex="1" parent="1">
          <mxGeometry x="70" y="300" width="200" height="60" as="geometry" />
        </mxCell>
      </root>
    </mxGraphModel>
  </diagram>
</mxfile>
